<svg xmlns="http://www.w3.org/2000/svg" version="1.2" viewBox="0 0 195 150">
  <style>
    .s1{fill:#000}
  </style>
  <g id="Layer 1">
    <path id="Layer" fill="#fff" fill-rule="evenodd" d="M2 2h192v147H2z"/>
    <path d="M0 150h195V0H0zM138.5 23.1c1.7 0 3.1.1 4.4 1.4a7 7 0 0 1 1.7 4.9c0 1.7-.4 3.3-1.5 4.6-1.1 1.4-2.5 1.7-4.1 1.7h-3.8V23.1zM128 25.6V28h4.4v2.4H128v2.8h5.5v2.4h-8.2V23.1h8.2v2.5zm-4.3 0h-3v10.1H118v-10h-2.9V23h8.5v2.5zm-12.2 1.1c-.3-1-1-1.5-2-1.5-.7 0-1.6.2-1.6 1.2s1 1.2 1.7 1.3c1 .2 2.2.5 3 1 1 .7 1.5 1.8 1.5 3 0 1.3-.6 2.4-1.4 3.2l-.8.5-.8.3-.9.2h-.9c-2.1 0-4-1-4.6-3.5l2.5-.6c.3 1.3 1.2 1.8 2.4 1.8.7 0 1.8-.3 1.8-1.4 0-1-1.3-1.2-2-1.4-2-.5-4-1.1-4-3.9 0-1.1.3-2.2 1.1-3l.7-.5.7-.3.8-.2h.8c2 0 3.6.8 4.3 3zm-13.1-1.1V28h4.3v2.4h-4.3v2.8h5.5v2.4h-8.2V23.1h8.2v2.5zm-9.8 5.7V29h4.7v6.7H92l-.4-1.4-.6.7-.7.5-.9.3-.9.1c-3.4 0-4.8-3-4.8-6.4 0-3.4 1.6-6.5 5-6.5 2.5 0 4.2 1.6 4.5 4.3l-2.5.3c-.1-1.2-.8-2.3-2-2.3-2 0-2.2 2.7-2.2 4.3 0 1.6.4 4 2.3 4 1.1 0 2-1 1.9-2.3h-2.2zm-11.3 0V29H82v6.7h-1.2l-.4-1.4c-.9 1.1-1.8 1.6-3.1 1.6-3.4 0-4.8-3-4.8-6.4 0-3.4 1.5-6.5 5-6.5 2.5 0 4.1 1.6 4.5 4.3l-2.6.3c0-1.2-.7-2.3-2-2.3-1.9 0-2.2 2.7-2.2 4.3 0 1.6.5 4 2.3 4 1.2 0 2-1 2-2.3zm-6.6-.6c0 1.4 0 2.9-1 3.9-.9 1-2.2 1.3-3.5 1.3-1.2 0-2.5-.2-3.5-1-1.1-1.2-1.2-2.6-1.2-4.2v-7.6h3v7.6c0 .6 0 1.5.2 2 .4.7 1 .8 1.7.8.6 0 1.3-.1 1.7-.6.3-.6.3-1.5.3-2.2v-7.6h2.3zm-13.5-4c-.3-1-1-1.5-2-1.5-.7 0-1.6.2-1.6 1.2s1 1.2 1.7 1.3c1 .2 2.2.5 3 1 .9.7 1.5 1.8 1.5 3 0 1.3-.6 2.4-1.5 3.2l-.7.5-.9.3-.8.2H55c-2.1 0-4-1-4.6-3.5l2.5-.6c.3 1.3 1.2 1.8 2.4 1.8.7 0 1.7-.3 1.7-1.4 0-1-1.3-1.2-2-1.4-2-.5-4-1.1-4-3.9 0-1.1.4-2.2 1.2-3l.7-.5.7-.3.8-.2h.8c2 0 3.5.8 4.3 3zM173.6 8.3V11h4.3v2.3h-4.3V16h5.5v2.5H171V5.9h8.2v2.4h-5.5zm-7.5 2.5c0-1.4-.5-2.7-2-2.7-1.8 0-2 2.7-2 4.2 0 1.7.2 4 2.2 4 1.2 0 1.8-1.2 2-2.4l2.6.2c-.3 2.8-2.1 4.5-4.8 4.5-3.4 0-5-3-5-6.4 0-3.5 1.7-6.5 5.1-6.5 2.9 0 4.4 1.8 4.7 4.9zm-9 7.7h-2.3l-4.4-8.5v8.5h-2.1V5.9h2.9l3.8 7.4V5.9h2v12.6zm-10.4 0h-2.9l-.7-2.6h-3.7l-.7 2.6h-2.4L140 5.9h3.1zm-4.2-5-1.2-4.4-1.2 4.5h2.4zm-12.8-7.7c1.6 0 3 0 4.3 1.4a7 7 0 0 1 1.8 4.8c0 1.7-.5 3.4-1.5 4.6a5 5 0 0 1-4.2 1.8h-3.8V5.9h3.4zM129 16h1c1 0 1.8-.2 2.4-1.3.4-.8.6-1.8.6-2.8 0-1-.3-2-.8-2.8-.6-.9-1.3-1-2.3-1h-.9zm-5.3 2.4H121V5.9h2.7v12.6zm-5-5c0 1.4 0 2.8-1 3.8-.8 1-2.2 1.3-3.4 1.3-1.2 0-2.6-.2-3.6-1-1-1.1-1.1-2.6-1.1-4.1V5.9h2.9v7.6c0 .6 0 1.4.2 2 .4.6 1 .8 1.7.8.6 0 1.4-.2 1.7-.7.4-.6.3-1.4.3-2.1V5.9h2.3v7.6zm-16 .6v-2.4h4.6v6.8H106l-.4-1.5q-.2.4-.6.7l-.7.5-.8.3-.9.1c-3.4 0-4.8-3-4.8-6.3 0-3.4 1.5-6.6 5-6.6 2.4 0 4 1.6 4.4 4.3l-2.5.4c-.1-1.3-.7-2.3-2-2.3-2 0-2.2 2.7-2.2 4.2 0 1.7.4 4 2.3 4 1.2 0 2-1 1.9-2.2h-2.2zm-11 1.9v2.5h-7.3V5.9H87v10h4.6zm-8.8 2.5h-3l-.6-2.6h-3.7l-.8 2.6h-2.3L76 5.9h3l3.7 12.6zm-4.2-4.9L77.3 9l-1.2 4.5h2.5zm-5.8-5.2h-3v10h-2.6v-10h-3V5.9h8.5v2.5zm-10.2 10h-2.3L55.9 10v8.5h-2.1V5.9h2.8l3.9 7.4V5.9h2v12.6zm-16.2-10v2.5h4.4v2.3h-4.4V16H52v2.5h-8.2V5.9H52v2.4h-5.6zm-11.2 10h-2.7V6h4.8c1 0 2 0 3 .6.9.7 1.4 2 1.4 3.2 0 1.4-.7 2.7-2 3.2l2.1 5.6h-3l-1.7-5h-2v5zm0-7h1.4c.6 0 1.2 0 1.7-.3.4-.3.6-1 .6-1.5s-.2-1-.6-1.2C37.8 8 37 8 36.6 8h-1.4v3.2zM31 18.4h-3l-.6-2.6h-3.7l-.7 2.6h-2.4l3.7-12.6h3L31 18.5zm-4.2-4.9L25.5 9l-1.3 4.5h2.5zm-12.4 4.9h-2.7V5.9H16c1.1 0 2.2 0 3.1.7 1 .7 1.5 1.8 1.5 3.1 0 1.2-.4 2.4-1.2 3.2-1 1-2 1-3.3 1h-1.7v4.6zm1.5-7c.6 0 1.2 0 1.6-.5.3-.3.4-.8.4-1.2 0-.4-.2-1-.6-1.3-.4-.3-1-.3-1.4-.3h-1.5v3.3zM3.6 39.9h187.6v106.7H3.6zm134.3-6.5h.9c1 0 1.8-.3 2.4-1.4a5.2 5.2 0 0 0-.2-5.5c-.6-1-1.3-1-2.2-1h-1v7.9z" class="s1"/>
    <path d="M59 123.3c-6.8-1.2-10.3-2-10-9l-.2-11.8c2.2.1 4.5 0 6.4 0 26 0 40 2.5 38.3-24.4-.3-18.5-13-17.7-40-17.7l-22.1.2c-4 0-6.8-.1-12.4.2-5.3.1-5.7 4.9-.9 6.4 5.3 2.3 9.7.7 10 7.4V115c0 8-5.2 7.5-7.8 8.6-7 .6-6.3 6.7-1.5 6.9h13.6c12 0 26.4.2 29.6 0 4.5 0 5-6.6-3-7.1m-10-29v-23c0-2.4 1.6-3 6.8-3 11.2 0 14.6 2.4 15.4 10.8.3 16.2-5.2 15.4-18.8 15.4l-3.4-.1m103.4 11.8c-.7-2.8-2.9-2.8-6-3.8-6.4-1-8-6.6-1-7H156c5.6 0 18-.3 21.5 0 6.4 0 7.8 4.6 0 6.7-2 .6-5.4 2.4-5.4 6.4v15.2s-3.4 8.8-36.8 8.2c-20.6-.5-35-1-36-35 0-44 27.7-39 38.5-39.9 15.3.2 23.4 2.1 27.8 3.8 7 2.4 7.2 5.7 7.3 11.7.1 6.1-1.2 11.8-8 12-9.6.9-10.4-3.4-11-7.2-1.4-11.3-2.2-12-14.4-12-17.8-.1-19.7 9.2-19.3 30.3.3 15.9.6 27.4 18 27.2 9.2 0 14.4-.6 14.4-7.4 0 0 .5-6-.1-9.2" class="s1"/>
  </g>
</svg>
