<svg xmlns="http://www.w3.org/2000/svg" version="1.2" viewBox="0 0 241 150">
  <g id="Layer 1">
    <path id="Layer" fill="#fff" fill-rule="evenodd" d="M2 2h237v146H2z"/>
    <path fill-rule="evenodd" d="M0 0h241v150H0zm164.7 28.6c1.9 0 3.8 0 5.1 1.6 1.6 1.3 2.2 3.5 2.2 5.3 0 2-.7 3.9-1.9 5.4-1.3 1.6-3 1.9-4.8 1.9H161V28.6zM152 31.3v2.9h5.1v2.7H152v3.2h6.5v2.7h-9.7V28.6h9.7v2.7zm-6.2 11.5h-2.7l-5-9.7v9.7h-2.6V28.6h3.4l4.5 8.3v-8.3h2.4zM123 40.5q-.4-.5-.6-1.1l-.5-1.3-.2-1.3-.1-1.3c0-3.8 1.9-7.5 5.9-7.5 1.6 0 3 .8 4 2.4l.8 1.1.5 1.3.3 1.3v1.4c0 1.6-.5 3.4-1.3 4.8-1.1 1.9-2.7 2.8-4.3 2.8-1.8 0-3.5-1-4.5-2.6zm2.4-8-.5 3c0 1.8.2 4.5 2.6 4.5 1.1 0 1.6-.5 1.9-1.6l.5-2.9v-.8l-.1-.9-.2-.8-.2-.8c-.5-1-1.1-1.3-1.9-1.3l-.7.1-.7.3-.4.5-.3.7zm-9.5-4.3h3.3v14.6h-3.3zm-2.1 3h-3.2v11.5h-3.2V31.2h-3.5v-2.7h9.9zm-11.5 5.7c0 1.6 0 3.2-1.3 4.5-1.1 1.1-2.8 1.3-4.1 1.3-1.4 0-3 0-4-1-1.4-1.4-1.7-3-1.7-4.8v-8.7h3.5v8.7l.3 2.4c.5.8 1.3.8 2.1.8.6 0 1.6 0 1.9-.6.6-.8.4-1.8.4-2.6v-8.7h2.9zm-12.7 5.7h-3.2l-.8-2.9h-4.5l-.9 2.9h-2.7l4.4-14.3h3.7zM84.5 37l-1.4-5.2-1.6 5.2zm-11.7-3.3c0-1.6-.6-3-2.2-3-2.5 0-2.5 3-2.5 4.9 0 1.9 0 4.3 2.5 4.3 1.6 0 2.2-1.3 2.4-2.6l3 .2c-.3 3.2-2.4 5.4-5.4 5.4-4.1 0-6-3.5-6-7.5 0-4.1 1.9-7.4 6-7.4 3.5 0 5.1 1.9 5.4 5.4zm132.4-17.1v5.9h-2.9v-5.9L198 8.2h3.5l2.7 5.3 2.6-5.3h2.7zm-6.1 3.2v2.9h-8.7V8.3h3.3v11.5zm-16.9-2.2V15h5.6v7.7h-1.6l-.3-1.9c-1.1 1.4-2.1 1.9-3.7 1.9-4.1 0-5.7-3.5-5.7-7.2 0-3.8 1.9-7.5 5.9-7.5 3 0 4.9 1.9 5.4 5.1l-3 .2c-.2-1.3-1-2.6-2.4-2.6-2.4 0-2.6 3.2-2.6 4.8 0 1.9.5 4.5 2.6 4.5 1.4 0 2.4-1 2.4-2.4zm-8.1 5.1h-2.6l-5.1-9.6h-.3v9.6h-2.4V8.3h3.5l4.5 8.3V8.3h2.4zm-22.8-1.9-.6-1.3-.5-1.4-.2-1.4v-1.4c0-3.7 1.6-7.2 5.6-7.2 2 0 3.3.5 4.4 2.1 1 1.4 1.3 3.5 1.3 5.1v1.3l-.2 1.4-.4 1.2-.5 1.3-.9 1-1.1.8-1.2.4-1.4.2c-1.7 0-3.3-.8-4.3-2.1zm2.1-8.4-.2 2.9c0 1.9.2 4.8 2.4 4.8 1.1 0 1.7-.5 2.2-1.6l.3-3.2c0-1 0-2.1-.5-3.2-.3-.8-.9-1.3-2-1.3s-1.6.5-2.2 1.6zm-12.8 10.3h-3.3V8.4h5.7c1.1 0 2.4 0 3.5.5 1.1.8 1.6 2.1 1.6 3.7 0 1.7-.8 3-2.1 3.8l2.4 6.3h-3.5l-2.1-5.8h-2.2zm0-8h1.6l1.9-.3.8-1.6c0-.8-.3-1.3-.8-1.6l-1.9-.3h-1.6zm-5.4-3.2H132v11.3h-3.2V11.5h-3.5v-3h9.9zM121 12.8c-.5-1.3-1.2-1.8-2.5-1.8-.8 0-1.9.2-1.9 1.3s1.4 1.3 1.9 1.6l3.8 1.2c1.1.8 1.6 2.1 1.6 3.5 0 1.3-.5 2.6-1.6 3.4-1 1.1-2.7 1.4-4.1 1.4-2.4 0-4.8-1.4-5.3-4l2.9-.8c.3 1.6 1.4 2.1 2.7 2.1 1.1 0 2.2-.5 2.2-1.6s-1.4-1.4-2.5-1.6c-2.1-.6-4.5-1.4-4.5-4.4l.1-.9.2-.9.4-.9.6-.8c1-.7 2.3-1.1 3.5-1.1 2.5 0 4.4.8 5.2 3.3zm-18.6 0c-.3-1.1-1-1.7-2.4-1.7-.8 0-1.7.3-1.7 1.4 0 1.1 1.2 1.3 2 1.3 1.1.3 2.4.6 3.5 1.5a4 4 0 0 1 1.6 3.2c0 1.6-.6 2.9-1.6 3.7l-.9.5-.9.3-1 .3h-1c-2.7 0-4.9-1.1-5.7-4l3-.6c.5 1.4 1.7 1.9 3 1.9.8 0 2.1-.2 2.1-1.6 0-1.1-1.6-1.3-2.4-1.6-2.5-.5-4.9-1.1-4.9-4.4 0-1.4.5-2.6 1.4-3.5 1-.7 2.2-1.1 3.5-1 2.4 0 4.3.8 5.1 3.5zm-8.9-1.4h-3.2V23h-3.2V11.4h-3.5V8.5h9.9zM81.7 23h-2.6l-5.5-9.8V23h-2.4V8.7h3.5l4.6 8.3V8.7h2.4zm-19-11.6v2.9h5v2.8h-5V20h6.4v3h-9.7V8.4h9.7v3zM49.5 23h-3.2V8.4h5.6c1.4 0 2.5 0 3.6.8 1 .8 1.6 2.2 1.6 3.5 0 1.6-.8 3.3-2.2 3.9l2.4 6.4h-3.5l-2.2-5.6h-2.1zm0-8.4h1.6c.5 0 1.3.2 1.9-.3.5-.3.8-.8.8-1.6 0-.6-.2-1.1-.8-1.4-.6-.5-1.4-.2-1.9-.2h-1.6zm-5.1 8h-3.5l-.8-2.9h-4.3l-.8 2.9h-3l4.4-14.2h3.7zm-4.8-5.7-1.7-5.1-1.3 5.1zm-14.5 5.7h-3.3V8H27c1.3 0 2.4 0 3.5.9 1.2.9 1.8 2.1 1.8 3.7 0 1.3-.5 2.7-1.6 3.5-1 1.1-2.1 1.1-3.7 1.1h-1.9zm1.6-8.1c.8 0 1.4 0 1.9-.5.3-.4.5-.9.5-1.4l-.5-1.3c-.5-.5-1.3-.5-1.9-.5h-1.6v3.7zm-22.9 34h232.5v97.2H3.8zm159.9-8.6h1.1c1.3 0 2.1-.4 2.9-1.4.6-1.1.6-2.2.6-3.3 0-1-.3-2.4-.8-3.2-.8-1-1.6-1-2.7-1h-1.1z" class="s1"/>
    <path d="M40.9 119.7c-5.1-.8-7.5-1.3-7.5-6.4v-8.6H38c18.9 0 29.4 1.9 28-17.9-.2-13.4-9.3-12.9-29.1-12.9H20.6l-9.1.3c-3.7 0-4 3.5-.5 4.5 4 1.7 6.9.6 7.2 5.7v29.4c0 5.9-3.8 5.4-5.6 6.2-5.1.5-4.6 4.8-1.1 5.1H43c3.2 0 3.8-4.8-2.1-5.4zm-7.5-20.9V81.7c0-1.6 1.3-2.1 5.1-2.1 8.3 0 10.7 1.8 11.2 8C50 99.4 46 98.8 36.1 98.8zm74.5 9.7c-.5-1.9-2.1-1.9-4.2-2.7-4.8-.8-5.9-4.8-.8-5.1h23.2c4.8 0 5.9 3.5.3 4.8-1.6.6-4 1.9-4 4.9v10.9s-2.7 6.5-27 5.9c-15-.2-25.7-.5-26.2-25.4 0-32.2 20.3-28.7 28.1-29.2 11.2.3 17.1 1.6 20.3 2.7 5.1 1.8 5.3 4.3 5.3 8.5 0 4.6-1.1 8.6-5.9 8.9-6.9.5-7.4-2.4-8-5.4-1.1-7.2-2.9-8.8-10.4-8.6-13.1-.2-14.4 6.7-14.2 22 .3 11.8.3 20.1 13.1 20.1 6.7 0 10.4-.5 10.4-5.4 0 0 .6-4.5 0-6.9zm42.5-30.8 3.2-1.2q1.6-.6 3.3-1l3.3-.9 3.3-.7 8.1-.2c.8 0 .8.8.8 1.3v39.4c0 4 1 5.6 4.8 5.6h.8c3.4 0 3.4 4.8.2 4.8h-25.6c-3 0-3.8-4.5.3-4.8h1c2.7-.5 3.8-.5 4-5.6V87.1c0-1.9.8-4.3-3.4-3.8-6.5 1.3-7.8-4.3-4.1-5.6zm46.6 48.2c-11.8-.5-13.1-3-13.1-8-.3-3.5 0-6.5 3.4-7.8 3-1.1 7.8-1.4 9.7 6.7.8 2.9 5.6 2.7 6.9 2.7 4 0 9.4-1.1 9.6-8.6.6-5.1-.2-7-2.9-8.6-4.6-1.9-11.2 1.1-12.3-2.9-.5-6.5 3.7-3.5 10.4-4.8 3.8-.9 4.8-3 4.6-8.6-.3-7.8-5.7-7.8-10.2-7.5-10.7.8-3.7 8.6-11.2 10.2-9.1 1-8-3.8-8.3-6.2.3-4.6.3-5.9 2.9-8 3.5-2.7 10.2-2.7 19-2.7 5.4 0 19.8-.3 21.7 11.8.5 8.3-.8 10.7-6.5 13.6 3.8 2.7 6.5 5.4 6.2 14-1.3 16.6-16.8 15.5-29.9 14.7z" class="s1"/>
    <path d="M142.5 93.2h4.8c3.4 0 4.2 3.5 4.2 5.4 0 1-1 4.5-4.2 4.5h-9.1q-4.8 0-4.8-4.5c0-3.5 1.6-5.1 4.8-5.4z" class="s1"/>
  </g>
</svg>
