<svg xmlns="http://www.w3.org/2000/svg" version="1.2" viewBox="0 0 139 150">
  <g id="Layer 1">
    <path id="Layer" fill="#fff" fill-rule="evenodd" d="M2.1 1.5H137V148H2.1z"/>
    <path fill-rule="evenodd" d="M0 0h139v150H0zm116.4 7.2h3.9c2.7 0 7.9 0 7.9 7.2 0 3-.9 5.1-2.9 6.5-1.2.9-3.2.9-4.5.9h-4.4V7.3zm-2 0V10h-6.3v3.4h5.1v2.4h-5.1v3.5h6.3v2.6h-10.1V7.3h10.1zm-11.6 0v3h-3.5v11.7h-3.8V10.2h-3.2v-3h10.6zm-11 9.7c-.2 3-2.1 5.2-5.7 5.2-5.3 0-6.3-4-6.3-7.4 0-2.7.6-7.6 6.3-7.6l1.3.1q.7.1 1.3.4.6.2 1.1.6l1 .9.4.9.3.9.2 1v1l-3.2.2c-.2-1.4-.2-3.4-2.4-3.4-2.1 0-2.6 2.3-2.6 5.2 0 2.4.5 4.6 2.6 4.6 2 0 2.2-2.2 2.4-2.8zM73.1 7.3h3.8v14.8h-3.8zm-8.5.3c1.8 0 3.3 0 4.6 1.3.9 1 1.1 2 1.1 3.2 0 2.6-1.5 3.3-2.2 3.7l3.1 6.3h-4.1l-2.3-5.6H63v5.6h-3.6V7.6zM63.1 10v4h1.5c1.6 0 2.2-.8 2.2-2 0-2-1.8-2-2.4-2zM58 7.6v2.8h-3.5v11.7h-3.4V10.4h-3.6V7.6zm-14.2 4.1c-.2-.4-.6-1.7-2.4-1.7-1.3 0-1.8.6-1.8 1.3 0 1 1.1 1.4 3 2 1.9.5 4.5 1.4 4.5 4.5 0 2.5-2 4.5-5.9 4.5-1.3 0-3.1 0-4.3-1.3l-1.6-2.5 3.2-.9c.3.6.7 2.3 2.7 2.3 1.3 0 2.2-.8 2.2-1.7 0-1-1.1-1.5-2.2-1.7-2.4-.9-5.2-1.6-5.2-4.8 0-2.2 1.7-4.4 5.4-4.4 4.2 0 5.1 2.5 5.5 3.6zm-9.3-4.2v2.4h-6.4v3.4H33v2.4h-4.9v3.6h6.4V22H24.2V7.5zm-18.6 0c1.5 0 3.3 0 4.7 1.1.9 1 1 2 1 3.4 0 2.4-1.4 3.3-2.4 3.7l3.1 6.3h-3.9l-2.2-5.8h-2V22h-3.7V7.5h5.3zm-1.7 2.2V14H16c1.4 0 2.1-1 2.1-2.3 0-2-1.7-2-2.3-2zM3.2 28h132.2v118.9H3.2zm116.9-8.5h.5c1.6 0 3.5-.3 3.5-5 0-4.4-2-4.6-3.5-4.6h-.6v9.6z" class="s1"/>
    <path d="m67.8 96.6 3.8 5.1c2.8 3.7 16.3 26.5 22.2 26.9H124c5.1 0 6.2-6.6.7-7.9-2.5-.9-10.2-1.6-20.1-13.9L91.2 89.6c13.9 0 18.5-4.2 18.7-19.9.2-27.6-10.8-22.9-40.7-23.6l-47.8-.2c-10.2-.2-13.3 8.4.6 9 7.1.5 10.8 4.2 11.5 14.8V107c-.5 10.6-.7 13.2-13.5 14.1-7 .2-7.9 7.5 1.6 7.5h46.5c10.3.4 9.4-7.1 2.6-7.5-9-.7-13.2.9-13.7-10.6l-.2-10.4c0-9.7 7.3-8.8 11-3.5zm16.6-27.1c-.3 13.7-2.7 12.6-15.5 13H57.3l.2-22.3c0-3.1 1.5-5.3 4.8-5.3 21.6-.6 22.3 1.8 22.1 14.6z" class="s1"/>
  </g>
</svg>
