<svg xmlns="http://www.w3.org/2000/svg" version="1.2" viewBox="0 0 271 150">
  <style>
    .s1{fill:#000}
  </style>
  <g id="Layer 1">
    <path id="Layer" fill="#fff" fill-rule="evenodd" d="M1 2h269v146H1z"/>
    <path fill-rule="evenodd" d="M0 0h271v150H0zm205.8 25v3.7h-11.6V9.9h4.2v15h7.4zm-15.4 3.7h-3.8L179.7 16h-.2v12.6h-3.2V9.9h4.6l5.9 11h.3V10h3.1v18.8zM159.3 26c-1.1-2-1.7-4.3-1.7-6.9 0-4.8 2.2-9.3 7.6-9.3 2.6 0 4.3 1 5.7 2.8q.9 1.5 1.4 3.1.5 1.7.5 3.4.1 1.7-.3 3.4t-1.3 3.2q-.4.8-1.1 1.4l-1.4 1q-.8.5-1.7.7l-1.8.1c-2.5 0-4.5-1-5.9-3zm3.1-10.5-.6 3.6c0 2.6.3 6.4 3.4 6.4 1.4 0 2.3-1 2.8-2.4l.6-4c0-1-.3-2.8-.8-3.9-.6-1.4-1.2-2-2.6-2-1.4 0-2.2 1-2.8 2.3zm-19.8 0c-.6-1.7-1.7-2.3-3.1-2.3-1.1 0-2.6.3-2.6 1.7s1.7 1.7 2.6 1.7c1.4.6 3.4.8 4.8 1.7q.5.3.9.8l.8 1 .4 1.2.2 1.2c0 2-1 3.8-2.3 5l-1.2.7-1.3.4-1.3.3h-1.3c-3.4 0-6.6-1.4-7.5-5.2l4.1-.9c.6 2 1.7 2.7 3.7 2.7 1 0 2.8-.7 2.8-2 0-1.5-2-1.8-3.1-2-3.4-.9-6.6-1.8-6.6-5.8 0-1.9.8-3.3 2-4.5 1.4-1 3-1.5 4.6-1.4 3 0 5.9 1.1 7 4.3zM130.2 14h-4.5v15h-4.4V14h-4.5v-3.4h13.4zm-12.5 11v3.8h-11.5V10.2h4.2V25h7.4zm-15-3.7c0 2 0 4.4-1.7 5.8l-1.2.9q-.6.4-1.3.6-.6.3-1.4.4l-1.4.1c-2 0-4.3-.3-5.7-1.7-1.7-1.5-2-3.8-2-6v-11h4.8v11c0 .8-.2 2.2.3 2.7.6 1.3 1.7 1.6 2.8 1.6.9 0 2-.3 2.6-1.3.6-.8.6-2 .6-3v-11h3.6v11zM75.6 10c2.6 0 4.9.2 6.9 2 2 2 2.8 4.5 2.8 7 0 2.6-.6 5.1-2.3 6.9-1.7 2-4 2.6-6.6 2.6h-6.3V9.9h5.5zm-.9 15h1.5c1.8 0 2.9-.3 4-2l.4-1 .2-.9.2-1.1.1-1c0-1.4-.3-3-1.1-4.2-1.2-1.2-2.4-1.4-3.8-1.4h-1.5zm-6.8 3.4h-4.5l-1.2-3.7h-5.9l-1 3.7h-3.8l6-18.4h4.6l5.7 18.4zm-6.5-7.5-2-6.2-1.9 6.2h4zM4.6 36.5h262.3v109H4.6zm209.8-16.2V28h-4.3v-7.7l-5.6-10.8h4.8l3.4 7.1 3.6-7h3.7l-5.6 10.6z" class="s1"/>
    <path fill-rule="evenodd" d="M158.6 88.6h5.7c3.9 0 4.8 3.9 4.8 6.2 0 1.1-1.1 5.1-4.8 5.1h-10.8c-3.4 0-5.2-1.7-5.3-5.1 0-4.2 1.9-5.9 5.3-6.2zm16.2-19.3c7-2.5 10.4-3.9 14.9-4.5h9.1c1.1 0 1.1.6.8 1.4v44.7c0 4.6 1.5 6.6 5.7 6.6h.8c4 0 4 5.3.3 5.3h-29.1c-3.4 0-4.2-5.1.3-5.3h1.4c2.8-.6 4-.9 4.2-6.6l.3-30.8c-.3-2.6.9-5.1-4.2-4.5-7.4 1.4-8.5-4.8-4.5-6.3zM65.3 100.2V77.5c0-6.7-3.4-6.5-5.6-7-6-1.2-4.8-6-.9-6h22.4c3.9 0 5.3 3.7.2 5.7-1.4.6-6.2.6-6.2 7.3l.3 40s.3 5.9-3.4 5.9h-7.6c-1.8 0-3.5-.8-4.5-2.3L32.2 84.6c0-.3-.5-.5-.2 0v25.2c0 6 1.1 7.1 5.9 7.7 7.1.8 5.1 5.6 1.1 5.9H15.6c-4.6-.3-4.6-5.1 1.1-5.9 0 0 5.7-.3 5.7-7.4v-34c-.3-5.6-3.4-4.8-8-6.2-3.1-.6-2.8-5.4 1.7-5.4l11.1-.3c3.9.3 9.3-.2 10.4 1.5L65 100.8s.6 1.1.3-.6zm176.2-24.9h-9.9c-12.2.8-3.4 5.6-11.9 7.6-10.2 1.4-8.8-4.2-9-6.8 0-5.1.2-6.8 3.1-9 3.9-3.1 12.4-3.4 21.7-3.4h15c3.1 0 6.8.8 7.7 3.9.5 2.7.2 5.5-.9 8l-19.2 43.6c-.9 2.5-1.4 3.9-4.2 4.2h-11.1c-3.4 0-2-3.1-1.1-5.1zm-99 1.1c0-7.1-1.4-7.6-5.1-9.9q-3.2-1.1-6.4-1.8-3.3-.7-6.6-1-3.3-.4-6.6-.4-3.4 0-6.7.4c-12.1.3-17.5 4.5-22 12.4q-1.7 4.3-2.6 8.8-1 4.5-1.1 9.1-.2 4.6.4 9.1.6 4.6 1.9 9c1.4 2.2 1.4 7.3 12.7 10.7q4.4.7 8.9 1 4.5.3 9 0 4.5-.2 8.9-.9 4.5-.6 8.8-1.8c2.9-.8 6.8-2.2 6.8-9.6 0-1.7-3.1-4.8-9.9 0-5.9 4.5-18.4 5.1-23.8 2.8-2.8-1.1-4.2-3.4-5.6-7.6-.6-2.3-2.8-24.6 2-30.9 2.8-5.3 12.7-5.3 17.2-4.5 4.8 2 4.3 3.7 6.2 11.3 1.7 3.4 4.3 3.4 8 3.2 6.2-.3 5.6-4.6 5.6-9.4z" class="s1"/>
  </g>
</svg>
