<svg xmlns="http://www.w3.org/2000/svg" version="1.2" viewBox="0 0 195 150">
  <style>
    .s0{fill:#fff}.s1{fill:#000}
  </style>
  <g id="Layer 1">
    <path id="Layer" fill-rule="evenodd" d="M1 1h193v148H1z" class="s0"/>
    <path fill-rule="evenodd" d="M0 0h195v150H0zm3.8 40.6h188v106.7H3.8z" class="s1"/>
    <path fill-rule="evenodd" d="M70.8 102.6V75.9c0-8-3.7-7.5-5.8-8.4-6.6-1.2-5.4-6.8-1-6.8h23.4c4.2 0 5.6 4.2.2 6.5-1.1.7-6.3.7-6.5 8.7l.2 46.9s.5 6.8-3.5 6.8h-8c-2.3.2-3.4-1-4.8-2.6L36 84.4c-.2-.8-.7-.8-.5 0l.3 29.2c-.3 7 .9 8.3 6.3 9.2 7.2 1.2 4.9 6.6.9 6.8H18.5c-5.2-.2-4.9-6.1.9-7 .2 0 6.1-.3 5.8-8.5V74.3c-.2-6.8-3.2-5.7-8.1-7.3-3.1-1-3.1-6.3 1.6-6.3 4.9-.5 8.4-.3 11.9-.3 4 0 9.6-.4 11 1.5L70.3 103s.7 1.4.5-.5zm66 .5 2.9 4.2c2 3 12.4 21.8 16.8 22.3h22.7c3.5 0 4.5-5.6.2-6.8-1.8-.5-7.4-1-15-11.5l-10-14.1c10.3 0 14-3.5 14-16.6.3-22.7-8-19-30.3-19.5l-35.8-.2c-7.7-.2-9.8 6.8.5 7.5 5.4.5 8.2 3.5 8.4 12.2v30.9c-.2 8.9-.4 11-10 12-5.2 0-6 6 1.4 6h34.6c7.9.3 7-5.8 2-6.2-6.7-.5-10 .7-10.2-8.7l-.3-8.7c0-8 5.7-7.3 8.2-2.8zm12.5-22.7c0 11.5-2 10.5-11.4 10.7h-8.7V72.6c0-2.3 1.4-4.2 3.7-4.2 16.2-.7 16.6 1.4 16.4 12z" class="s1"/>
    <path d="M26.6 30.5h-3.5V10.3h3.5l7.5 13.1V10.3h3.8v20.2h-3.8l-7.5-12.9zm23.9.3c-2.8 0-5-.9-6.6-2.6-1.5-1.6-2.3-4.2-2.3-7.8 0-3.5.8-6.1 2.3-7.7q.6-.7 1.4-1.2l1.6-.8q.9-.4 1.8-.5.9-.2 1.8-.1c2.8 0 5 .9 6.5 2.6 1.5 1.6 2.3 4.2 2.3 7.7 0 3.6-.8 6.2-2.3 7.8q-.6.7-1.4 1.2-.7.5-1.6.8-.8.4-1.7.5-.9.2-1.8.1zm0-3.1c1.5 0 2.7-.6 3.5-1.9.7-1 1.1-2.6 1.1-4.7V18.5l-.2-1.2q-.1-.6-.4-1.1l-.5-1.1c-.8-1.3-2-1.9-3.5-1.9-1.6 0-2.8.6-3.5 1.9-1 1-1.4 2.6-1.4 4.6v1.4c0 2 .5 3.6 1.4 4.7.7 1.3 1.9 1.9 3.5 1.9zM71 30.5h-3.9V13.6h-5.4v-3.2h14.7v3.2H71zm19.9 0h-4V10.3h8.9c2.2 0 3.8.6 4.9 1.7 1 1 1.6 2.4 1.6 4q0 1.8-.9 3.3a5 5 0 0 1-2.8 1.8l4.2 9.4h-4.4l-3.5-8.4h-4zm0-16.7v4.9h4.2c1.1 0 1.8-.2 2.1-.7.5-.5.7-1 .7-1.8s-.2-1.4-.7-1.9c-.3-.3-.9-.5-1.8-.5zm18.2 16.7h-4l6.8-20.2h4.7l7 20.2h-4.2l-1.2-4h-7.9zm5.1-16.6-2.8 9.3h5.6zm17.2 16.5h-3.9V13.8h-5.4v-3.5h14.7v3.5h-5.4zm23.2 0h-13.8V10.2h13.5v3.3h-9.6v5h8.2v3.2h-8.2v5.2h9.9zm10 0h-7V10.5h7c2.7 0 4.7.8 6.1 2.3 1.5 1.7 2.3 4.2 2.3 7.3 0 3.5-.8 6-2.3 7.7a7.4 7.4 0 0 1-6.1 2.6zm-3-16.6v13.3h2.5c1.6 0 2.8-.5 3.5-1.6 1-1 1.4-2.5 1.4-4.7v-1.4c0-1.9-.5-3.3-1.4-4.2-.7-1-1.9-1.4-3.5-1.4z" class="s0"/>
  </g>
</svg>
