<svg xmlns="http://www.w3.org/2000/svg" version="1.2" viewBox="0 0 188 150">
  <style>
    .s1{fill:#000}
  </style>
  <g id="Layer 1">
    <path id="Layer" fill="#fff" fill-rule="evenodd" d="M3 3h183v145H3z"/>
    <path d="M0 150h188V0H0zM5.2 6h177.2v138.8H5.2z" class="s1"/>
    <path d="M112.9 92.4c-1-4.1-4.4-4.1-9.5-5.8-10.2-1.4-13-9.9-1.4-10.2h16.7c9.1-.4 28.9-.7 34.6-.4 10.2.4 12.6 7.2 0 10.2-3 .7-8.5 3.8-8.8 9.6v22.8s-5.4 13.3-59.2 12.3c-33.3-.7-56.4-1.7-57.8-52.5-.3-66.1 44.6-58.6 61.9-59.7 24.8.4 37.8 3.1 44.9 5.5 10.9 3.8 11.6 8.5 11.6 17.7.3 9.2-2.1 17.4-13 18.1-15.3 1-16.6-5.1-17.6-10.9C112.9 32 111.9 31 92.1 31c-28.5-.3-31.9 13.7-31.2 45.4.6 23.8 1 41.2 28.9 40.9 14.9 0 23.4-1.1 23.4-10.9 0 0 .7-9.2-.3-14z" class="s1"/>
  </g>
</svg>
